# xmcd CD database file
#
# Track frame offsets:
#	150
#	12735
#	24027
#	33757
#	44340
#	57265
#	64972
#	76857
#	94295
#	105227
#	116112
#	127387
#	137190
#	149040
#	160317
#	171057
#
# Disc length: 2442 seconds
#
# Revision: 0
# Processed by: cddbd v1.5.2PL0 Copyright (c) Steve Scherf et al.
# Submitted via: CDex 1.70beta2
#
DISCID=e1098810
DTITLE=Rundfunkblasorchester Leipzig and Blaskapelle Herbert Ferstl - Leipziger Allerlei
DYEAR=1900
DGENRE=Blasmusik
TTITLE0=Guadiana (Spanischer Tanz) RBO Leipzig
TTITLE1=Trompeten-Walzer (Walzer) RBO Leipzig
TTITLE2=Schnell, schnell, am schnellsten (Galopp) RBO Leipzig
TTITLE3=Wandern im Sonnenschein (Marsch) RBO Leipzig
TTITLE4=Geburtstagswalzer BK Herbert Ferstl
TTITLE5=Lebenslust (Schnellpolka) RBO Leipzig
TTITLE6=Teplicka-Polka RBO Leipzig
TTITLE7=Gföller Marsch BK Herbert Ferstl
TTITLE8=Flötino (Samba) RBO Leipzig
TTITLE9=Maschierer-Polka BK Herbert Ferstl
TTITLE10=Multiplikationen (Walzer) RBO Leipzig
TTITLE11=Tirata RBO Leipzig
TTITLE12=Vaters alter Hut (Rheinländer) RBO Leipzig
TTITLE13=Im fröhlichen Dorf (Polka) RBL
TTITLE14=Kreuzpolka BK Herbert Ferstl
TTITLE15=Wohl bekommt's (Polka) RBO Leipzig
EXTD=
EXTT0=
EXTT1=
EXTT2=
EXTT3=
EXTT4=
EXTT5=
EXTT6=
EXTT7=
EXTT8=
EXTT9=
EXTT10=
EXTT11=
EXTT12=
EXTT13=
EXTT14=
EXTT15=
PLAYORDER=
